<?xml version="1.0" encoding="utf-8"?>
<!-- Svg Vector Icons : http://www.onlinewebfonts.com/icon -->
<!DOCTYPE svg PUBLIC "-//W3C//DTD SVG 1.1//EN" "http://www.w3.org/Graphics/SVG/1.1/DTD/svg11.dtd">
<svg version="1.1" xmlns="http://www.w3.org/2000/svg" xmlns:xlink="http://www.w3.org/1999/xlink" x="0px" y="0px" viewBox="0 0 256 256" enable-background="new 0 0 256 256" xml:space="preserve">
<metadata> Svg Vector Icons : http://www.onlinewebfonts.com/icon </metadata>
<g><g><g><path fill="#000000" d="M61.6,17.6l-22,7.4L24.8,39.8C14.3,50.3,10,54.9,10,55.7c0,0.6,1,2.7,2.2,4.5c1.2,1.9,22.3,36.3,47,76.5c24.7,40.2,49.9,81.2,56,91.1c10.4,17,11.1,18.1,12.5,18.1c1.4,0,4.1-4.3,58.6-92.6c31.4-51,57.7-93.5,58.4-94.5c0.7-1.1,1.3-2.4,1.3-3c0-0.7-4.9-5.9-15.1-16l-15.1-15l-21.9-7.3l-21.9-7.3l-44.2,0l-44.2,0.1L61.6,17.6z M190.2,20.9c10.3,3.4,18.9,6.3,19,6.5c0.2,0.1-8.4,6-19,13.1l-19.2,12.9H128H85.1L65.8,40.5c-10.6-7-19.2-13-19-13.1c0.1-0.2,8.5-3,18.7-6.5l18.5-6.2l43.7-0.1l43.7-0.1L190.2,20.9z M49.8,35.4c4.1,2.7,7.4,5,7.3,5.1c-0.1,0.1-8.2,2.5-18,5.3c-9.8,2.8-18.2,5.2-18.6,5.3c-0.4,0.2,4.1-4.6,10-10.5c5.9-5.9,11-10.6,11.3-10.5C42.1,30.3,45.8,32.6,49.8,35.4z M235.3,50.6c-0.2,0.2-36.2-9.9-36.4-10.1c-0.1-0.1,3.4-2.6,7.7-5.5l8-5.3L225,40.1C230.7,45.8,235.4,50.5,235.3,50.6z M61.2,44.6c0,0.3,1.2,9.9,2.6,21.6c1.5,11.7,2.5,21.3,2.3,21.5c-0.2,0.2-5.8-3.3-12.5-7.7C26.1,62.2,17.9,56.8,18.1,56.5c0.3-0.3,41.6-12.2,42.5-12.2C60.9,44.3,61.2,44.4,61.2,44.6z M216.8,50.2l21.3,6l-1.7,1.3c-1,0.7-8.9,6.2-17.8,12.2c-8.8,6-18.8,12.9-22.2,15.2c-3.4,2.3-6.2,4.2-6.3,4.2s0.9-9.5,2.2-21.2c1.4-11.6,2.4-21.7,2.4-22.3c0.1-0.6,0.2-1.1,0.5-1.1C195.4,44.3,205.1,46.9,216.8,50.2z M73.9,51.4c4.2,2.8,7.7,5.2,7.7,5.2c0.1,0.1-2.4,6.1-5.5,13.5c-3.1,7.3-5.7,13.3-5.8,13.3c-0.1-0.1-1-7.6-2.2-16.7c-1.1-9.1-2.1-17.4-2.3-18.4c-0.2-1-0.2-1.9,0-1.9C66.1,46.3,69.7,48.6,73.9,51.4z M190.2,46.9c-0.2,3.8-4.3,37.6-4.6,37.1c-0.2-0.4-2.8-6.7-5.9-14c-4.3-10-5.5-13.4-5-13.7c0.4-0.3,3.8-2.6,7.7-5.2c3.9-2.6,7.2-4.8,7.4-4.8C190.1,46.3,190.3,46.6,190.2,46.9z M113.4,64.4c-5.7,3.4-16.8,10-24.9,14.8c-8,4.8-14.6,8.6-14.7,8.6c-0.1-0.1,2.7-6.7,6-14.8l6.1-14.7h18.8h18.8L113.4,64.4z M175.7,72.2c3.2,7.6,5.9,14.3,6.1,14.8c0.4,1,0.4,1-1.3,0c-0.9-0.6-12.2-7.3-25.2-14.9l-23.5-13.9h19h19.1L175.7,72.2z M153.2,76l25,14.7l-25.1,0.2c-13.8,0.1-36.4,0.1-50.2,0l-25.1-0.2l24.7-14.7c13.6-8.1,25-14.7,25.2-14.7C127.9,61.3,139.4,68,153.2,76z M52.9,85.6l14,9.3l23.7,60.4c13,33.2,24.1,61.4,24.6,62.7c0.5,1.3,0.7,2,0.4,1.8c-0.3-0.3-7.2-11.6-15.5-25.1c-8.3-13.6-29.7-48.4-47.6-77.4C34.7,88.2,20,64.3,20,64.2c0-0.2,4.2,2.5,9.4,5.9C34.7,73.5,45.2,80.5,52.9,85.6z M188.2,141.8c-26.3,42.7-47.9,77.5-48,77.5c-0.1-0.2,47.9-122,48.6-123.2c0.4-0.7,46.9-32.2,47.1-32C236,64.2,214.5,99.2,188.2,141.8z M182,100.1c-40.6,103-54.3,137.4-54.6,136.6c-0.7-1.7-53.1-135.4-54.1-138.1L72.3,96H128h55.7L182,100.1z"/></g></g></g>
</svg>