<?xml version="1.0" encoding="UTF-8"?>
<svg version="1.1" xmlns="http://www.w3.org/2000/svg" width="980" height="862">
<path d="M0 0 C0.84280854 -0.00297112 1.68561708 -0.00594224 2.55396527 -0.0090034 C5.35924456 -0.01762832 8.16448087 -0.01919339 10.96977234 -0.02069092 C12.98936045 -0.02532368 15.00894769 -0.03034895 17.02853394 -0.03573608 C22.50436759 -0.04882235 27.98018901 -0.05529826 33.45603585 -0.05974674 C36.88481766 -0.06268499 40.31359618 -0.06679131 43.74237633 -0.07125092 C54.49212099 -0.08491905 65.24185807 -0.09458773 75.99161083 -0.09845281 C88.35874961 -0.10292492 100.7257774 -0.12043633 113.09288245 -0.1494534 C122.67797705 -0.17115404 132.26304062 -0.18116162 141.84815949 -0.18249393 C147.56022715 -0.18353643 153.27219038 -0.18932462 158.98423195 -0.20731354 C164.36792074 -0.2239386 169.75142824 -0.22588057 175.13513374 -0.21717453 C177.09609721 -0.21641168 179.05707101 -0.22064576 181.01800919 -0.23063278 C219.52785316 -0.41503877 255.17596024 11.92628139 283.17948914 39.02716064 C295.65145794 51.44471762 305.16592181 65.69766765 312.32011414 81.78497314 C312.88169472 83.04125015 312.88169472 83.04125015 313.45462036 84.32290649 C318.96777533 96.81451602 323.96448897 109.52642423 329.01280212 122.21087646 C330.12064167 124.98992816 331.23435024 127.76661277 332.34800816 130.54333687 C333.42372808 133.22737386 334.49610456 135.91273634 335.56741142 138.59853745 C336.07719964 139.87559409 336.58795944 141.15226334 337.09971809 142.42853165 C337.80618857 144.19199664 338.50773799 145.95743073 339.20903015 147.72296143 C339.60824173 148.72408966 340.00745331 149.7252179 340.41876221 150.75668335 C341.26933289 153.14044189 341.26933289 153.14044189 341.26933289 155.14044189 C341.86603476 155.13767652 342.46273663 155.13491114 343.07752037 155.13206196 C357.67955561 155.06545191 372.28158182 155.01599253 386.88373375 154.98500538 C393.94559096 154.96961719 401.007346 154.94868429 408.06913757 154.91412354 C414.89672931 154.88072524 421.72421534 154.86353888 428.5518837 154.85581017 C431.14389836 154.85030926 433.7359079 154.83956867 436.32787704 154.82325172 C454.22687276 154.71515659 471.18610246 155.47938725 488.39433289 160.82794189 C489.21997742 161.08067871 490.04562195 161.33341553 490.89628601 161.59381104 C499.1603081 164.23953866 506.69919636 167.9424761 514.26933289 172.14044189 C515.3482782 172.71794189 516.42722351 173.29544189 517.53886414 173.89044189 C524.79153087 177.9124599 531.03716349 182.68838934 537.26933289 188.14044189 C538.23741882 188.96286377 539.20550476 189.78528564 540.20292664 190.63262939 C565.53578735 212.83594295 581.60428891 244.7133241 585.26933289 278.14044189 C585.62360353 284.44730964 585.544357 290.76964363 585.5300293 297.08396912 C585.53305429 298.98389486 585.53694551 300.88381938 585.54162186 302.78374177 C585.55186595 307.97576589 585.54972921 313.16772068 585.54544127 318.35975039 C585.54296748 323.97069639 585.55199636 329.58162598 585.55947876 335.19256592 C585.57221011 346.17445079 585.57402136 357.1563112 585.5716785 368.13820221 C585.56989326 377.06842351 585.57164939 385.99863739 585.57590294 394.9288578 C585.57649813 396.20134095 585.57709332 397.4738241 585.57770654 398.78486735 C585.57891834 401.37020125 585.58013247 403.95553514 585.58134892 406.54086903 C585.58913271 423.89269372 585.59305772 441.2445135 585.58903217 458.59633923 C585.5888758 459.27422567 585.58871942 459.95211211 585.58855831 460.65054056 C585.58775259 464.08592571 585.58690682 467.52131086 585.586045 470.956696 C585.58587392 471.63890921 585.58570283 472.32112243 585.58552656 473.02400877 C585.5851799 474.40360855 585.58483137 475.78320832 585.58448097 477.1628081 C585.57912596 498.62061961 585.58705024 520.07839001 585.60551453 541.53619385 C585.62626139 565.67459346 585.63692096 589.81295986 585.63293904 613.95137101 C585.6310293 626.72070502 585.63349238 639.49000159 585.64765358 652.25932884 C585.65958903 663.13135991 585.66094808 674.00333049 585.64886341 684.87536242 C585.64298966 690.41682618 585.64183355 695.95817941 585.65386581 701.4996357 C585.66477515 706.58324113 585.66156161 711.66664442 585.64760413 716.7502406 C585.64497102 718.57855848 585.64727957 720.40689246 585.65533999 722.23519447 C585.71848724 737.64131973 584.34986301 752.79053502 579.26933289 767.45294189 C578.82811096 768.74361572 578.82811096 768.74361572 578.37797546 770.06036377 C572.86319043 785.46657002 565.00590642 799.78202946 554.26933289 812.14044189 C553.80945984 812.6757251 553.34958679 813.2110083 552.8757782 813.76251221 C529.37366071 840.92440425 497.24889726 858.66313098 461.26933289 862.14044189 C452.06967384 862.64263048 442.8499039 862.55307677 433.6396055 862.52584456 C429.89988385 862.51815596 426.1601985 862.5280449 422.42048216 862.53557456 C415.8817833 862.546357 409.3431589 862.54611354 402.80445671 862.53843307 C393.08086438 862.52704287 383.35733437 862.53290895 373.63374241 862.542058 C356.2631718 862.55782481 338.89263438 862.55649818 321.52206065 862.54782126 C306.32049985 862.54026536 291.1189512 862.53830879 275.91738892 862.54188919 C274.90781898 862.54211835 273.89824904 862.5423475 272.85808608 862.5425836 C268.75959358 862.54351766 264.66110109 862.54447287 260.56260861 862.54546289 C222.13991668 862.55463351 183.71724583 862.54632964 145.29455715 862.5301722 C111.18148281 862.5159361 77.06844208 862.51721001 42.95536804 862.53155518 C4.60155678 862.54762986 -33.75223585 862.55398305 -72.10605001 862.54471838 C-76.19694105 862.54375628 -80.2878321 862.54281775 -84.37872314 862.54188919 C-85.38595553 862.54165196 -86.39318791 862.54141473 -87.43094248 862.54117031 C-102.62046051 862.53776234 -117.80996504 862.5417404 -132.9994812 862.54932785 C-150.27600089 862.55791493 -167.55248231 862.5557413 -184.82899725 862.53948562 C-194.49009756 862.53069447 -204.15111493 862.53007607 -213.81221304 862.54142414 C-220.27437428 862.5481756 -226.73646934 862.54392092 -233.19862082 862.53090983 C-236.87447404 862.52380861 -240.5501631 862.52125936 -244.22601086 862.53212778 C-282.73669711 862.63745317 -316.93528856 854.77288687 -346.73066711 829.14044189 C-347.68586243 828.33091064 -348.64105774 827.52137939 -349.62519836 826.68731689 C-375.14852871 804.53522573 -391.83588082 771.28800464 -394.9596535 737.67657514 C-395.30017916 731.88629246 -395.26971181 726.09736412 -395.23860168 720.2993927 C-395.24322451 718.38731077 -395.2495866 716.47523241 -395.25751066 714.56316131 C-395.27403761 709.36986333 -395.26603429 704.17686354 -395.25356579 698.98356521 C-395.24444862 693.35903954 -395.25851786 687.73456219 -395.26948547 682.11004639 C-395.28720498 671.11538508 -395.28345999 660.12083344 -395.27183491 649.12616796 C-395.26277444 640.18421515 -395.26158786 631.24229292 -395.26593018 622.30033684 C-395.26654311 621.02411756 -395.26715604 619.74789829 -395.26778755 618.4330057 C-395.26906654 615.83978573 -395.2703634 613.24656577 -395.27167791 610.65334582 C-395.28274046 587.06834601 -395.27129845 563.48341942 -395.25030752 539.89843194 C-395.23133015 518.41258239 -395.23302456 496.92682772 -395.25215149 475.440979 C-395.27361592 451.24901823 -395.28196388 427.05712485 -395.26970243 402.86515182 C-395.26842834 400.28155546 -395.26717086 397.69795909 -395.26593018 395.11436272 C-395.26500452 393.2079702 -395.26500452 393.2079702 -395.26406017 391.2630647 C-395.26061777 382.34042348 -395.26641165 373.4178161 -395.27584839 364.49518013 C-395.28710942 353.60910849 -395.28394251 342.72315211 -395.26272541 331.83709354 C-395.25226972 326.29113376 -395.24799883 320.7453656 -395.26132202 315.19940758 C-395.27336643 310.10846015 -395.2664879 305.01787935 -395.24541181 299.92696451 C-395.24099618 298.09947898 -395.24309618 296.27196154 -395.25291497 294.44449706 C-395.44194989 256.29165017 -381.0058703 222.03157748 -354.43379211 194.74981689 C-329.89587633 170.3676974 -295.94250983 155.0632241 -261.18341064 155.01602173 C-260.09943497 155.019617 -259.01545929 155.02321228 -257.89863586 155.0269165 C-256.1558712 155.02669746 -256.1558712 155.02669746 -254.37789917 155.026474 C-250.55796914 155.0271677 -246.73808857 155.03493468 -242.91816711 155.04278564 C-240.26159075 155.04465175 -237.60501709 155.04612397 -234.94844055 155.04707336 C-228.68361392 155.05017255 -222.41880489 155.05836679 -216.15398598 155.06842285 C-209.01730024 155.07962799 -201.88061363 155.0851055 -194.74392128 155.09011829 C-180.07282751 155.10055068 -165.40174756 155.11812261 -150.73066711 155.14044189 C-150.54214267 154.56337746 -150.35361822 153.98631302 -150.15938091 153.39176178 C-148.65847281 148.83676615 -147.0868763 144.3386965 -145.31391907 139.88067627 C-144.85946915 138.73498169 -144.40501923 137.58928711 -143.9367981 136.40887451 C-143.45240768 135.19622925 -142.96801727 133.98358398 -142.46894836 132.73419189 C-141.95424425 131.44259418 -141.43961258 130.1509676 -140.92504883 128.85931396 C-139.84849551 126.15899391 -138.76983936 123.45952487 -137.68989563 120.76055908 C-136.59744351 118.0295501 -135.50861293 115.29714497 -134.42329407 112.56329346 C-124.06341581 86.47076906 -124.06341581 86.47076906 -119.26191711 76.21856689 C-118.96799576 75.58962524 -118.6740744 74.96068359 -118.37124634 74.31268311 C-103.38295749 43.24761687 -74.8279723 18.97351903 -42.61274719 7.4006958 C-28.84218932 2.76234889 -14.54924737 -0.01630761 0 0 Z M-36.86347961 102.45294189 C-42.09010362 109.50376016 -45.52001803 116.94870415 -48.80097961 125.06622314 C-49.30962807 126.31128719 -49.81869928 127.55617859 -50.32814026 128.80091858 C-52.14147409 133.24239566 -53.93643171 137.69122255 -55.73066711 142.14044189 C-56.26098919 143.45401295 -56.26098919 143.45401295 -56.80202484 144.79412079 C-62.18251806 158.12202437 -67.53368592 171.46157164 -72.87129211 184.80670166 C-75.07351075 190.31235175 -77.28054802 195.81605734 -79.48865891 201.31934643 C-81.19980816 205.58615729 -82.90786096 209.85420243 -84.61501312 214.12261391 C-85.42888505 216.15611397 -86.24387484 218.18916699 -87.06000519 220.2217617 C-88.18753008 223.03084989 -89.31073409 225.84162696 -90.43281555 228.65289307 C-90.76929108 229.48846237 -91.1057666 230.32403168 -91.45243835 231.18492126 C-93.12276326 235.04206932 -93.12276326 235.04206932 -93.73066711 239.14044189 C-94.60512576 239.13675472 -95.47958441 239.13306755 -96.3805418 239.12926865 C-117.69870823 239.04077204 -139.01684281 238.97466157 -160.33515453 238.93319321 C-170.64471234 238.91260426 -180.95414722 238.88455403 -191.2636261 238.83868408 C-200.25370107 238.79870376 -209.24368698 238.77298245 -218.23384839 238.76408792 C-222.99017038 238.75889207 -227.74623763 238.74675704 -232.50247765 238.71752167 C-236.98815204 238.69017532 -241.47346913 238.68203534 -245.95921898 238.68801117 C-247.59697416 238.68691946 -249.23474251 238.67908078 -250.87242508 238.66362 C-268.44488579 238.50599799 -282.57831485 242.81530584 -295.63301086 254.94903564 C-310.82851606 270.82366956 -312.04167737 289.38818703 -311.99136353 310.1546936 C-311.9943898 311.94141347 -311.99828166 313.72813204 -312.00295609 315.51484835 C-312.01318334 320.38923172 -312.01106781 325.2635411 -312.0067755 330.13793039 C-312.00429867 335.40866788 -312.01333424 340.67938799 -312.02081299 345.95011902 C-312.03353515 356.26209799 -312.03535681 366.57405089 -312.03301273 376.88603638 C-312.03122675 385.27086583 -312.0329852 393.65568739 -312.03723717 402.0405159 C-312.03783236 403.23573089 -312.03842755 404.43094588 -312.03904077 405.66237951 C-312.04025257 408.09076734 -312.0414667 410.51915516 -312.04268315 412.94754298 C-312.05354897 435.69922886 -312.05140064 458.4508999 -312.0452983 481.20258661 C-312.04012911 501.99695509 -312.05138636 522.79127673 -312.07039652 543.58563595 C-312.08978778 564.96147542 -312.09802871 586.33729275 -312.09427327 607.71314108 C-312.0923633 619.70438976 -312.09482899 631.69559857 -312.10898781 643.68684006 C-312.12091893 653.89428928 -312.122287 664.10167408 -312.11019764 674.30912422 C-312.10432136 679.51213018 -312.1031749 684.71501841 -312.11520004 689.91801643 C-312.12610045 694.6899941 -312.12290635 699.4617563 -312.10893836 704.23372407 C-312.10630286 705.95094087 -312.10862149 707.66817478 -312.11667422 709.38537471 C-312.20102806 728.73119946 -309.89737916 747.57874718 -295.73066711 762.14044189 C-282.18632078 773.95778705 -269.11864235 778.46395712 -251.42507362 778.39491749 C-250.20404391 778.39812397 -248.98301419 778.40133044 -247.72498357 778.40463409 C-244.34231019 778.41149449 -240.95985738 778.40943795 -237.57719642 778.40357836 C-233.89458874 778.39940053 -230.2120011 778.40681428 -226.52939832 778.41273087 C-220.07723559 778.42148982 -213.6251046 778.42280607 -207.17293739 778.4192276 C-197.57824089 778.41392028 -187.9835751 778.42001619 -178.38888194 778.42831053 C-160.25607132 778.44355479 -142.12327466 778.44525518 -123.99045898 778.44278751 C-109.98904852 778.44095522 -95.98764264 778.4427131 -81.98623276 778.44701195 C-79.97503137 778.44761435 -77.96382999 778.44821555 -75.95262861 778.44881555 C-72.9219859 778.4497228 -69.89134319 778.45063146 -66.86070048 778.4515479 C-38.68164732 778.45997807 -10.50259589 778.46431267 17.67645836 778.46014118 C19.27006583 778.45990662 19.27006583 778.45990662 20.89586739 778.45966732 C26.2806213 778.45886153 31.6653752 778.45801575 37.0501291 778.45715401 C38.11956849 778.45698293 39.18900788 778.45681184 40.29085453 778.45663557 C42.4535206 778.45628891 44.61618667 778.45594038 46.77885275 778.45558998 C80.43389295 778.45023215 114.08890695 778.4581647 147.74394226 778.47662354 C185.55119748 778.49733543 223.35843648 778.50806783 261.16569769 778.50404805 C265.19622079 778.5036527 269.22674389 778.50329115 273.257267 778.50295067 C274.24969204 778.50285994 275.24211708 778.5027692 276.2646156 778.50267572 C291.25159092 778.50150935 306.23854986 778.50816105 321.22552109 778.51876259 C338.26786472 778.53080572 355.31017224 778.53238374 372.3525164 778.51997242 C381.89062523 778.51333719 391.42864776 778.51499019 400.96674971 778.52856094 C407.33830888 778.53679574 413.7098033 778.5341205 420.08135718 778.52258567 C423.71136678 778.51631966 427.34120782 778.51475308 430.97120778 778.526449 C434.88490903 778.53894291 438.79835316 778.52815673 442.71205711 778.515172 C444.39513901 778.52613602 444.39513901 778.52613602 446.11222255 778.53732154 C462.34706642 778.42548078 475.61150212 772.3619766 487.26933289 761.14044189 C501.25134868 745.27988997 502.58033518 727.37391346 502.52330017 707.22625732 C502.5256084 705.43826276 502.52878734 703.65026916 502.53275466 701.86227751 C502.54106154 696.97983945 502.53699615 692.09748012 502.53078222 687.21504188 C502.52624185 681.93753017 502.53324934 676.66003164 502.53874207 671.38252258 C502.54762082 661.05603656 502.54572082 650.72957966 502.53991678 640.4030925 C502.53539433 632.00820243 502.53478992 623.61332051 502.53696442 615.21842957 C502.53727088 614.02221292 502.53757735 612.82599626 502.5378931 611.59353063 C502.53853257 609.16320407 502.539181 606.73287752 502.53983828 604.30255097 C502.54553713 581.52997554 502.53899067 558.75741622 502.52823755 535.98484343 C502.51930245 516.45808824 502.52085462 496.93135682 502.53007507 477.40460205 C502.54078556 454.71177991 502.54498785 432.01897188 502.53885055 409.32614756 C502.53821347 406.90491645 502.53758473 404.48368534 502.53696442 402.06245422 C502.53665587 400.87125858 502.53634731 399.68006293 502.53602941 398.45277044 C502.53430481 390.07098311 502.53721251 381.68920476 502.54192352 373.30741882 C502.547541 363.08852402 502.54599766 352.86965993 502.53536204 342.65076864 C502.53011702 337.44006496 502.52802862 332.22941244 502.53466034 327.01870918 C502.54064614 322.24318718 502.53730147 317.46776347 502.52670524 312.69225031 C502.52448233 310.97034729 502.52558238 309.24843587 502.53045681 307.52653831 C502.58389834 287.06932584 499.94532808 269.52075965 485.26933289 254.14044189 C471.08260528 241.44813148 455.94665629 238.82676749 437.64213562 238.91339111 C435.96595262 238.91395598 434.28976913 238.91363719 432.61358643 238.9125061 C428.08529431 238.91193454 423.55710911 238.92365701 419.02884173 238.93765402 C414.28829672 238.95019415 409.54774899 238.95133446 404.80718994 238.95370483 C395.84014322 238.95990997 386.87314553 238.97630769 377.90612036 238.99640381 C367.69329543 239.01879293 357.48046811 239.02976381 347.26762474 239.03979468 C326.2681668 239.06067479 305.26875294 239.09583193 284.26933289 239.14044189 C284.01717451 238.3523528 284.01717451 238.3523528 283.75992203 237.5483427 C281.76026384 231.41321269 279.47824902 225.4209964 277.09257507 219.42681885 C276.68397751 218.39460709 276.27537994 217.36239532 275.85440063 216.29890442 C274.51105037 212.90776046 273.16391215 209.5181389 271.81620789 206.12872314 C270.87315438 203.75375428 269.93014154 201.37876928 268.98716736 199.00376892 C267.01195783 194.03108732 265.03457539 189.05927611 263.05595398 184.08795166 C260.78366152 178.37853463 258.51787284 172.6665664 256.25507426 166.95338088 C254.06231195 161.41806766 251.86262287 155.88552355 249.66048431 150.35393333 C248.73199956 148.01901366 247.80551973 145.6832956 246.88117218 143.346735 C234.29844009 109.6985025 234.29844009 109.6985025 207.16386414 87.72637939 C200.12107496 85.0841454 193.76814156 83.99141248 186.24542236 83.99327087 C185.04101601 83.98775584 185.04101601 83.98775584 183.81227821 83.9821294 C181.12420983 83.9711247 178.43618015 83.96725413 175.74809265 83.96343994 C173.81935504 83.95717269 171.89061864 83.95052566 169.96188354 83.94352722 C163.62817725 83.92250943 157.2944708 83.91212456 150.96073914 83.90216064 C148.77650884 83.89811175 146.59227867 83.89399479 144.40804863 83.88981056 C134.14151828 83.87076115 123.87499509 83.85653155 113.60845047 83.84819859 C101.77888 83.83843731 89.94949719 83.81214562 78.11999279 83.7716977 C68.96390872 83.74147153 59.80787823 83.72672342 50.65174526 83.72341758 C45.18958544 83.72107385 39.72762615 83.71220222 34.2655201 83.68695641 C29.1198694 83.66355783 23.97454958 83.65948961 18.82885933 83.66971779 C16.94964493 83.67021046 15.07041358 83.66397018 13.19124985 83.65016174 C-6.43464068 83.51412376 -22.94685422 87.36385356 -36.86347961 102.45294189 Z " fill="#020202" transform="translate(394.7306671142578,-0.14044189453125)"/>
<path d="M0 0 C1.2065625 1.11375 1.2065625 1.11375 2.4375 2.25 C4.41539558 4.06307094 6.43946817 5.78289014 8.5 7.5 C53.47393841 46.9650825 77.39612584 107.28480838 81.375 165.90625 C84.57996974 219.00677132 68.82642512 274.72637229 36.6875 317.3125 C36.24196777 317.910625 35.79643555 318.50875 35.33740234 319.125 C28.66631635 328.03578489 21.39456649 336.28870475 13.6875 344.3125 C12.40359375 345.65828125 12.40359375 345.65828125 11.09375 347.03125 C5.31969566 352.95148294 -0.81918457 358.20055384 -7.3125 363.3125 C-8.26382812 364.09238281 -9.21515625 364.87226562 -10.1953125 365.67578125 C-19.62805949 373.23886611 -29.84045129 379.3028122 -40.3125 385.3125 C-40.96976074 385.69680176 -41.62702148 386.08110352 -42.30419922 386.47705078 C-62.54001829 398.26179142 -85.62694872 405.86768101 -108.5 410.5625 C-109.23436279 410.71372314 -109.96872559 410.86494629 -110.7253418 411.02075195 C-125.25568477 413.80663887 -139.67456807 414.69106189 -154.4375 414.625 C-155.28867401 414.62317719 -156.13984802 414.62135437 -157.01681519 414.61947632 C-170.63983233 414.57053631 -183.90634045 413.90493588 -197.3125 411.3125 C-198.2003418 411.14621094 -199.08818359 410.97992187 -200.00292969 410.80859375 C-241.9864596 402.72620296 -280.43315187 383.78966505 -312.3125 355.3125 C-312.85358398 354.83312988 -313.39466797 354.35375977 -313.95214844 353.85986328 C-333.0969038 336.83169817 -348.23479576 317.30303452 -361.3125 295.3125 C-361.87445068 294.37470703 -361.87445068 294.37470703 -362.44775391 293.41796875 C-380.31032922 263.17480979 -391.21192708 225.36522349 -391.55078125 190.1953125 C-391.5605751 189.34877609 -391.57036896 188.50223969 -391.58045959 187.63005066 C-391.96243486 146.00995963 -385.33409987 106.31284869 -365.3125 69.3125 C-364.92835938 68.58579102 -364.54421875 67.85908203 -364.1484375 67.11035156 C-354.93481824 49.68620869 -343.77942431 34.25565434 -330.46875 19.69140625 C-328.51634564 17.53739491 -326.62972641 15.34222274 -324.75 13.125 C-321.85123721 9.79975257 -318.73812079 6.91151228 -315.37109375 4.06640625 C-314.04575018 2.93722358 -312.74364409 1.77987695 -311.47265625 0.58984375 C-297.42767513 -12.50953468 -281.22525091 -22.74177749 -264.3125 -31.6875 C-263.17772217 -32.29585693 -263.17772217 -32.29585693 -262.02001953 -32.91650391 C-239.78979728 -44.67443445 -215.05543919 -51.76026454 -190.3125 -55.6875 C-189.56307129 -55.81592285 -188.81364258 -55.9443457 -188.04150391 -56.07666016 C-122.13432978 -67.11522411 -49.39633248 -44.42657952 0 0 Z M-267.1875 74.25390625 C-268.96507142 76.22487086 -270.64518013 78.24733808 -272.3125 80.3125 C-273.08207031 81.24449219 -273.85164063 82.17648437 -274.64453125 83.13671875 C-281.25893507 91.3128211 -286.4819327 99.98656637 -291.3125 109.3125 C-291.63347656 109.92319336 -291.95445312 110.53388672 -292.28515625 111.16308594 C-297.78472989 121.75379208 -301.31455278 132.78484829 -304.3125 144.3125 C-304.65539062 145.58609375 -304.99828125 146.8596875 -305.3515625 148.171875 C-309.72505491 167.87302772 -309.6699865 192.84838682 -304.3125 212.3125 C-304.10318848 213.10221191 -303.89387695 213.89192383 -303.67822266 214.70556641 C-292.88035522 254.83267321 -268.5787521 288.63949923 -232.67822266 309.96289062 C-218.92651664 317.80803313 -204.68422193 323.56353459 -189.3125 327.3125 C-188.61753418 327.48894043 -187.92256836 327.66538086 -187.20654297 327.84716797 C-166.81125663 332.81430384 -141.61804838 332.54031672 -121.3125 327.3125 C-120.51489258 327.10850586 -119.71728516 326.90451172 -118.89550781 326.69433594 C-78.2515809 315.97557287 -44.51346881 290.95791462 -22.88793945 254.71679688 C-2.65728083 219.75044076 2.91185407 178.15802287 -7.26245117 139.05957031 C-18.34847562 99.64748737 -44.33375105 65.83546722 -80.00390625 45.6015625 C-141.95363131 11.55006157 -218.10459208 23.43264534 -267.1875 74.25390625 Z " fill="#030303" transform="translate(645.3125,310.6875)"/>
<path d="M0 0 C0.66 0.33 1.32 0.66 2 1 C-4.93 7.93 -11.86 14.86 -19 22 C-19.66 21.67 -20.32 21.34 -21 21 C-14.32497556 13.59083582 -7.66925098 6.41040928 0 0 Z " fill="#666666" transform="translate(313,29)"/>
<path d="M0 0 C0.66 0.33 1.32 0.66 2 1 C-5.26 8.26 -12.52 15.52 -20 23 C-20.66 22.67 -21.32 22.34 -22 22 C-16.82920646 16.14047371 -11.68402337 10.48062495 -5.6953125 5.4375 C-3.68329894 3.73146085 -1.82628533 1.90238055 0 0 Z " fill="#676767" transform="translate(336,309)"/>
<path d="M0 0 C0.66 0.33 1.32 0.66 2 1 C-3.94 6.94 -9.88 12.88 -16 19 C-16.66 18.67 -17.32 18.34 -18 18 C-12.37361021 11.50903494 -6.55902307 5.55113536 0 0 Z " fill="#676767" transform="translate(51,185)"/>
</svg>
